<?xml version="1.0" encoding="UTF-8"?>
<!DOCTYPE svg PUBLIC "-//W3C//DTD SVG 1.1//EN" "http://www.w3.org/Graphics/SVG/1.1/DTD/svg11.dtd">
<!-- Creator: CorelDRAW 2021 (64-Bit) -->
<svg xmlns="http://www.w3.org/2000/svg" xml:space="preserve" width="24px" height="24px" version="1.1" style="shape-rendering:geometricPrecision; text-rendering:geometricPrecision; image-rendering:optimizeQuality; fill-rule:evenodd; clip-rule:evenodd"
viewBox="0 0 24 24"
 xmlns:xlink="http://www.w3.org/1999/xlink"
 xmlns:xodm="http://www.corel.com/coreldraw/odm/2003">
 <defs>
  <style type="text/css">
   <![CDATA[
    .str0 {stroke:black;stroke-width:2.08;stroke-linecap:round;stroke-linejoin:round;stroke-miterlimit:2.61313}
    .fil1 {fill:none}
    .fil0 {fill:white}
   ]]>
  </style>
   <clipPath id="id0">
    <path d="M0 0l24 0 0 24 -24 0 0 -24z"/>
   </clipPath>
    <clipPath id="id1">
     <path d="M5.93 4.7c0.35,-0.29 0.73,-0.55 1.11,-0.78l-1.68 -2.05 1.41 -1.16 1.97 2.4c3.65,-1.31 7.88,-0.27 10.48,2.9 2.61,3.17 2.8,7.53 0.81,10.85l1.97 2.4 -1.41 1.16 -1.69 -2.05c-0.3,0.33 -0.62,0.64 -0.98,0.94 -0.41,0.33 -0.84,0.63 -1.29,0.89l1.7 2.07 -1.41 1.16 -2.01 -2.46c-3.61,1.2 -7.73,0.14 -10.29,-2.97 -2.55,-3.11 -2.79,-7.36 -0.91,-10.66l-2.02 -2.46 1.42 -1.16 1.7 2.07c0.33,-0.39 0.71,-0.75 1.12,-1.09zm1.1 1.34c1.65,-1.35 3.68,-1.9 5.65,-1.71 1.91,0.19 3.76,1.09 5.11,2.66l0 0 0.09 0.12 0 0 0.02 0.02 0.11 0.14c0.09,0.1 0.1,0.13 0.12,0.25 0.05,0.24 -0.09,0.46 -0.33,0.65l-2.23 1.83c0.41,0.75 0.57,1.59 0.49,2.41 -0.1,1.06 -0.61,2.08 -1.5,2.81 -0.88,0.73 -1.98,1.03 -3.04,0.92 -1.06,-0.1 -2.08,-0.61 -2.81,-1.49 -0.73,-0.89 -1.03,-1.99 -0.93,-3.05 0.11,-1.06 0.62,-2.08 1.5,-2.81 0.89,-0.73 1.99,-1.03 3.05,-0.92 0.55,0.05 1.08,0.21 1.57,0.47l-0.88 0.72c-0.35,0.31 -0.47,0.32 -0.83,0.27 -0.69,-0.07 -1.4,0.13 -1.97,0.6 -0.58,0.47 -0.9,1.13 -0.97,1.81 -0.04,0.43 0.02,0.87 0.18,1.27l6.67 -5.48c-1,-0.94 -2.27,-1.49 -3.58,-1.62 -1.56,-0.15 -3.18,0.29 -4.48,1.36 -1.31,1.08 -2.06,2.58 -2.21,4.14 -0.15,1.56 0.29,3.17 1.36,4.48 1.08,1.31 2.58,2.06 4.13,2.21 1.56,0.15 3.18,-0.29 4.49,-1.36 1.3,-1.08 2.05,-2.58 2.21,-4.14 0.06,-0.64 -0.03,-1.29 -0.12,-1.94 -0.04,-0.25 0.01,-0.79 0.4,-1.14l0.7 -0.58c0.53,1.22 0.73,2.53 0.6,3.82 -0.2,1.96 -1.14,3.86 -2.78,5.21 -1.65,1.35 -3.69,1.9 -5.65,1.71 -1.96,-0.19 -3.86,-1.13 -5.21,-2.78 -1.35,-1.65 -1.91,-3.68 -1.71,-5.65 0.19,-1.96 1.13,-3.85 2.78,-5.21zm7.37 4.92l-3.98 3.27c0.37,0.26 0.8,0.41 1.24,0.45 0.68,0.07 1.39,-0.13 1.97,-0.6 0.57,-0.47 0.9,-1.13 0.97,-1.81 0.04,-0.44 -0.02,-0.89 -0.2,-1.31z"/>
    </clipPath>
    <clipPath id="id2">
     <path d="M0 0l24 0 0 24 -24 0 0 -24z"/>
    </clipPath>
 </defs>
 <g id="Layer_x0020_1">
  <metadata id="CorelCorpID_0Corel-Layer"/>
  <g>
  </g>
  <g style="clip-path:url(#id0)">
   <g>
    <path class="fil0" d="M5.93 4.7c0.35,-0.29 0.73,-0.55 1.11,-0.78l-1.68 -2.05 1.41 -1.16 1.97 2.4c3.65,-1.31 7.88,-0.27 10.48,2.9 2.61,3.17 2.8,7.53 0.81,10.85l1.97 2.4 -1.41 1.16 -1.69 -2.05c-0.3,0.33 -0.62,0.64 -0.98,0.94 -0.41,0.33 -0.84,0.63 -1.29,0.89l1.7 2.07 -1.41 1.16 -2.01 -2.46c-3.61,1.2 -7.73,0.14 -10.29,-2.97 -2.55,-3.11 -2.79,-7.36 -0.91,-10.66l-2.02 -2.46 1.42 -1.16 1.7 2.07c0.33,-0.39 0.71,-0.75 1.12,-1.09zm1.1 1.34c1.65,-1.35 3.68,-1.9 5.65,-1.71 1.91,0.19 3.76,1.09 5.11,2.66l0 0 0.09 0.12 0 0 0.02 0.02 0.11 0.14c0.09,0.1 0.1,0.13 0.12,0.25 0.05,0.24 -0.09,0.46 -0.33,0.65l-2.23 1.83c0.41,0.75 0.57,1.59 0.49,2.41 -0.1,1.06 -0.61,2.08 -1.5,2.81 -0.88,0.73 -1.98,1.03 -3.04,0.92 -1.06,-0.1 -2.08,-0.61 -2.81,-1.49 -0.73,-0.89 -1.03,-1.99 -0.93,-3.05 0.11,-1.06 0.62,-2.08 1.5,-2.81 0.89,-0.73 1.99,-1.03 3.05,-0.92 0.55,0.05 1.08,0.21 1.57,0.47l-0.88 0.72c-0.35,0.31 -0.47,0.32 -0.83,0.27 -0.69,-0.07 -1.4,0.13 -1.97,0.6 -0.58,0.47 -0.9,1.13 -0.97,1.81 -0.04,0.43 0.02,0.87 0.18,1.27l6.67 -5.48c-1,-0.94 -2.27,-1.49 -3.58,-1.62 -1.56,-0.15 -3.18,0.29 -4.48,1.36 -1.31,1.08 -2.06,2.58 -2.21,4.14 -0.15,1.56 0.29,3.17 1.36,4.48 1.08,1.31 2.58,2.06 4.13,2.21 1.56,0.15 3.18,-0.29 4.49,-1.36 1.3,-1.08 2.05,-2.58 2.21,-4.14 0.06,-0.64 -0.03,-1.29 -0.12,-1.94 -0.04,-0.25 0.01,-0.79 0.4,-1.14l0.7 -0.58c0.53,1.22 0.73,2.53 0.6,3.82 -0.2,1.96 -1.14,3.86 -2.78,5.21 -1.65,1.35 -3.69,1.9 -5.65,1.71 -1.96,-0.19 -3.86,-1.13 -5.21,-2.78 -1.35,-1.65 -1.91,-3.68 -1.71,-5.65 0.19,-1.96 1.13,-3.85 2.78,-5.21zm7.37 4.92l-3.98 3.27c0.37,0.26 0.8,0.41 1.24,0.45 0.68,0.07 1.39,-0.13 1.97,-0.6 0.57,-0.47 0.9,-1.13 0.97,-1.81 0.04,-0.44 -0.02,-0.89 -0.2,-1.31z"/>
   </g>
   <g style="clip-path:url(#id1)">
    <g id="_1949373032800">
     <rect class="fil1 str0" x="-2.68" y="11.47" width="0.9" height="1.26"/>
    </g>
   </g>
   <g style="clip-path:url(#id2)">
    <path class="fil1" d="M5.93 4.7c0.35,-0.29 0.73,-0.55 1.11,-0.78l-1.68 -2.05 1.41 -1.16 1.97 2.4c3.65,-1.31 7.88,-0.27 10.48,2.9 2.61,3.17 2.8,7.53 0.81,10.85l1.97 2.4 -1.41 1.16 -1.69 -2.05c-0.3,0.33 -0.62,0.64 -0.98,0.94 -0.41,0.33 -0.84,0.63 -1.29,0.89l1.7 2.07 -1.41 1.16 -2.01 -2.46c-3.61,1.2 -7.73,0.14 -10.29,-2.97 -2.55,-3.11 -2.79,-7.36 -0.91,-10.66l-2.02 -2.46 1.42 -1.16 1.7 2.07c0.33,-0.39 0.71,-0.75 1.12,-1.09zm1.1 1.34c1.65,-1.35 3.68,-1.9 5.65,-1.71 1.91,0.19 3.76,1.09 5.11,2.66l0 0 0.09 0.12 0 0 0.02 0.02 0.11 0.14c0.09,0.1 0.1,0.13 0.12,0.25 0.05,0.24 -0.09,0.46 -0.33,0.65l-2.23 1.83c0.41,0.75 0.57,1.59 0.49,2.41 -0.1,1.06 -0.61,2.08 -1.5,2.81 -0.88,0.73 -1.98,1.03 -3.04,0.92 -1.06,-0.1 -2.08,-0.61 -2.81,-1.49 -0.73,-0.89 -1.03,-1.99 -0.93,-3.05 0.11,-1.06 0.62,-2.08 1.5,-2.81 0.89,-0.73 1.99,-1.03 3.05,-0.92 0.55,0.05 1.08,0.21 1.57,0.47l-0.88 0.72c-0.35,0.31 -0.47,0.32 -0.83,0.27 -0.69,-0.07 -1.4,0.13 -1.97,0.6 -0.58,0.47 -0.9,1.13 -0.97,1.81 -0.04,0.43 0.02,0.87 0.18,1.27l6.67 -5.48c-1,-0.94 -2.27,-1.49 -3.58,-1.62 -1.56,-0.15 -3.18,0.29 -4.48,1.36 -1.31,1.08 -2.06,2.58 -2.21,4.14 -0.15,1.56 0.29,3.17 1.36,4.48 1.08,1.31 2.58,2.06 4.13,2.21 1.56,0.15 3.18,-0.29 4.49,-1.36 1.3,-1.08 2.05,-2.58 2.21,-4.14 0.06,-0.64 -0.03,-1.29 -0.12,-1.94 -0.04,-0.25 0.01,-0.79 0.4,-1.14l0.7 -0.58c0.53,1.22 0.73,2.53 0.6,3.82 -0.2,1.96 -1.14,3.86 -2.78,5.21 -1.65,1.35 -3.69,1.9 -5.65,1.71 -1.96,-0.19 -3.86,-1.13 -5.21,-2.78 -1.35,-1.65 -1.91,-3.68 -1.71,-5.65 0.19,-1.96 1.13,-3.85 2.78,-5.21zm7.37 4.92l-3.98 3.27c0.37,0.26 0.8,0.41 1.24,0.45 0.68,0.07 1.39,-0.13 1.97,-0.6 0.57,-0.47 0.9,-1.13 0.97,-1.81 0.04,-0.44 -0.02,-0.89 -0.2,-1.31z"/>
   </g>
  </g>
  <polygon class="fil1" points="0,0 24,0 24,24 0,24 "/>
 </g>
</svg>
