
<svg xmlns="http://www.w3.org/2000/svg" xml:space="preserve" width="16px" height="16px" version="1.1" style="shape-rendering:geometricPrecision; text-rendering:geometricPrecision; image-rendering:optimizeQuality; fill-rule:evenodd; clip-rule:evenodd"
viewBox="0 0 16 16"
 xmlns:xlink="http://www.w3.org/1999/xlink"
 xmlns:xodm="http://www.corel.com/coreldraw/odm/2003">
 <defs>
  <style type="text/css">
   <![CDATA[
    .str0 {stroke:black;stroke-width:2.08;stroke-linecap:round;stroke-linejoin:round;stroke-miterlimit:2.61313}
    .fil1 {fill:none}
    .fil0 {fill:#040028}
   ]]>
  </style>
   <clipPath id="id0">
    <path d="M0 0l16 0 0 16 -16 0 0 -16z"/>
   </clipPath>
    <clipPath id="id1">
     <path d="M3.95 3.14c0.24,-0.2 0.49,-0.37 0.74,-0.53l-1.12 -1.36 0.94 -0.78 1.32 1.6c2.43,-0.87 5.25,-0.18 6.99,1.94 1.73,2.11 1.86,5.01 0.53,7.23l1.32 1.6 -0.95 0.78 -1.12 -1.37c-0.2,0.22 -0.42,0.43 -0.65,0.62 -0.28,0.23 -0.56,0.42 -0.86,0.6l1.13 1.38 -0.94 0.77 -1.34 -1.64c-2.41,0.8 -5.16,0.1 -6.86,-1.98 -1.7,-2.07 -1.86,-4.91 -0.61,-7.11l-1.34 -1.64 0.94 -0.77 1.13 1.38c0.23,-0.26 0.48,-0.5 0.75,-0.72zm0.74 0.89c1.09,-0.9 2.45,-1.27 3.76,-1.14 1.28,0.12 2.51,0.72 3.41,1.77l0 0 0.06 0.08 0 0 0.01 0.01 0.08 0.1c0.06,0.07 0.07,0.08 0.08,0.16 0.03,0.16 -0.07,0.31 -0.22,0.44l-1.49 1.22c0.28,0.5 0.38,1.06 0.33,1.61 -0.07,0.7 -0.41,1.38 -1,1.87 -0.59,0.48 -1.33,0.68 -2.03,0.61 -0.71,-0.06 -1.39,-0.4 -1.87,-1 -0.49,-0.59 -0.69,-1.32 -0.62,-2.03 0.07,-0.7 0.41,-1.38 1,-1.87 0.59,-0.48 1.32,-0.69 2.03,-0.62 0.36,0.04 0.72,0.15 1.05,0.32l-0.59 0.48c-0.23,0.21 -0.31,0.21 -0.56,0.18 -0.45,-0.04 -0.93,0.09 -1.31,0.4 -0.38,0.31 -0.6,0.75 -0.64,1.21 -0.03,0.28 0.01,0.58 0.12,0.85l4.45 -3.66c-0.68,-0.63 -1.52,-0.99 -2.39,-1.08 -1.04,-0.1 -2.12,0.19 -2.99,0.91 -0.87,0.72 -1.37,1.72 -1.47,2.76 -0.11,1.03 0.19,2.11 0.9,2.99 0.72,0.87 1.72,1.37 2.76,1.47 1.04,0.1 2.12,-0.2 2.99,-0.91 0.87,-0.72 1.37,-1.72 1.47,-2.76 0.04,-0.43 -0.01,-0.86 -0.08,-1.29 -0.02,-0.17 0.01,-0.53 0.27,-0.76l0.47 -0.39c0.35,0.81 0.48,1.69 0.4,2.55 -0.13,1.31 -0.76,2.57 -1.86,3.47 -1.1,0.9 -2.45,1.27 -3.76,1.14 -1.31,-0.13 -2.57,-0.75 -3.48,-1.85 -0.9,-1.1 -1.27,-2.46 -1.14,-3.77 0.13,-1.31 0.76,-2.57 1.86,-3.47zm4.91 3.28l-2.65 2.18c0.25,0.17 0.53,0.27 0.82,0.3 0.46,0.04 0.93,-0.09 1.32,-0.4 0.38,-0.32 0.6,-0.75 0.64,-1.21 0.03,-0.29 -0.01,-0.59 -0.13,-0.87z"/>
    </clipPath>
    <clipPath id="id2">
     <path d="M0 0l16 0 0 16 -16 0 0 -16z"/>
    </clipPath>
 </defs>
 <g id="Layer_x0020_1">
  <metadata id="CorelCorpID_0Corel-Layer"/>
  <g>
  </g>
  <g style="clip-path:url(#id0)">
   <g>
    <path class="fil0" d="M3.95 3.14c0.24,-0.2 0.49,-0.37 0.74,-0.53l-1.12 -1.36 0.94 -0.78 1.32 1.6c2.43,-0.87 5.25,-0.18 6.99,1.94 1.73,2.11 1.86,5.01 0.53,7.23l1.32 1.6 -0.95 0.78 -1.12 -1.37c-0.2,0.22 -0.42,0.43 -0.65,0.62 -0.28,0.23 -0.56,0.42 -0.86,0.6l1.13 1.38 -0.94 0.77 -1.34 -1.64c-2.41,0.8 -5.16,0.1 -6.86,-1.98 -1.7,-2.07 -1.86,-4.91 -0.61,-7.11l-1.34 -1.64 0.94 -0.77 1.13 1.38c0.23,-0.26 0.48,-0.5 0.75,-0.72zm0.74 0.89c1.09,-0.9 2.45,-1.27 3.76,-1.14 1.28,0.12 2.51,0.72 3.41,1.77l0 0 0.06 0.08 0 0 0.01 0.01 0.08 0.1c0.06,0.07 0.07,0.08 0.08,0.16 0.03,0.16 -0.07,0.31 -0.22,0.44l-1.49 1.22c0.28,0.5 0.38,1.06 0.33,1.61 -0.07,0.7 -0.41,1.38 -1,1.87 -0.59,0.48 -1.33,0.68 -2.03,0.61 -0.71,-0.06 -1.39,-0.4 -1.87,-1 -0.49,-0.59 -0.69,-1.32 -0.62,-2.03 0.07,-0.7 0.41,-1.38 1,-1.87 0.59,-0.48 1.32,-0.69 2.03,-0.62 0.36,0.04 0.72,0.15 1.05,0.32l-0.59 0.48c-0.23,0.21 -0.31,0.21 -0.56,0.18 -0.45,-0.04 -0.93,0.09 -1.31,0.4 -0.38,0.31 -0.6,0.75 -0.64,1.21 -0.03,0.28 0.01,0.58 0.12,0.85l4.45 -3.66c-0.68,-0.63 -1.52,-0.99 -2.39,-1.08 -1.04,-0.1 -2.12,0.19 -2.99,0.91 -0.87,0.72 -1.37,1.72 -1.47,2.76 -0.11,1.03 0.19,2.11 0.9,2.99 0.72,0.87 1.72,1.37 2.76,1.47 1.04,0.1 2.12,-0.2 2.99,-0.91 0.87,-0.72 1.37,-1.72 1.47,-2.76 0.04,-0.43 -0.01,-0.86 -0.08,-1.29 -0.02,-0.17 0.01,-0.53 0.27,-0.76l0.47 -0.39c0.35,0.81 0.48,1.69 0.4,2.55 -0.13,1.31 -0.76,2.57 -1.86,3.47 -1.1,0.9 -2.45,1.27 -3.76,1.14 -1.31,-0.13 -2.57,-0.75 -3.48,-1.85 -0.9,-1.1 -1.27,-2.46 -1.14,-3.77 0.13,-1.31 0.76,-2.57 1.86,-3.47zm4.91 3.28l-2.65 2.18c0.25,0.17 0.53,0.27 0.82,0.3 0.46,0.04 0.93,-0.09 1.32,-0.4 0.38,-0.32 0.6,-0.75 0.64,-1.21 0.03,-0.29 -0.01,-0.59 -0.13,-0.87z"/>
   </g>
   <g style="clip-path:url(#id1)">
    <g id="_1949364592416">
     <rect class="fil1 str0" x="-1.79" y="7.65" width="0.6" height="0.84"/>
    </g>
   </g>
   <g style="clip-path:url(#id2)">
    <path class="fil1" d="M3.95 3.14c0.24,-0.2 0.49,-0.37 0.74,-0.53l-1.12 -1.36 0.94 -0.78 1.32 1.6c2.43,-0.87 5.25,-0.18 6.99,1.94 1.73,2.11 1.86,5.01 0.53,7.23l1.32 1.6 -0.95 0.78 -1.12 -1.37c-0.2,0.22 -0.42,0.43 -0.65,0.62 -0.28,0.23 -0.56,0.42 -0.86,0.6l1.13 1.38 -0.94 0.77 -1.34 -1.64c-2.41,0.8 -5.16,0.1 -6.86,-1.98 -1.7,-2.07 -1.86,-4.91 -0.61,-7.11l-1.34 -1.64 0.94 -0.77 1.13 1.38c0.23,-0.26 0.48,-0.5 0.75,-0.72zm0.74 0.89c1.09,-0.9 2.45,-1.27 3.76,-1.14 1.28,0.12 2.51,0.72 3.41,1.77l0 0 0.06 0.08 0 0 0.01 0.01 0.08 0.1c0.06,0.07 0.07,0.08 0.08,0.16 0.03,0.16 -0.07,0.31 -0.22,0.44l-1.49 1.22c0.28,0.5 0.38,1.06 0.33,1.61 -0.07,0.7 -0.41,1.38 -1,1.87 -0.59,0.48 -1.33,0.68 -2.03,0.61 -0.71,-0.06 -1.39,-0.4 -1.87,-1 -0.49,-0.59 -0.69,-1.32 -0.62,-2.03 0.07,-0.7 0.41,-1.38 1,-1.87 0.59,-0.48 1.32,-0.69 2.03,-0.62 0.36,0.04 0.72,0.15 1.05,0.32l-0.59 0.48c-0.23,0.21 -0.31,0.21 -0.56,0.18 -0.45,-0.04 -0.93,0.09 -1.31,0.4 -0.38,0.31 -0.6,0.75 -0.64,1.21 -0.03,0.28 0.01,0.58 0.12,0.85l4.45 -3.66c-0.68,-0.63 -1.52,-0.99 -2.39,-1.08 -1.04,-0.1 -2.12,0.19 -2.99,0.91 -0.87,0.72 -1.37,1.72 -1.47,2.76 -0.11,1.03 0.19,2.11 0.9,2.99 0.72,0.87 1.72,1.37 2.76,1.47 1.04,0.1 2.12,-0.2 2.99,-0.91 0.87,-0.72 1.37,-1.72 1.47,-2.76 0.04,-0.43 -0.01,-0.86 -0.08,-1.29 -0.02,-0.17 0.01,-0.53 0.27,-0.76l0.47 -0.39c0.35,0.81 0.48,1.69 0.4,2.55 -0.13,1.31 -0.76,2.57 -1.86,3.47 -1.1,0.9 -2.45,1.27 -3.76,1.14 -1.31,-0.13 -2.57,-0.75 -3.48,-1.85 -0.9,-1.1 -1.27,-2.46 -1.14,-3.77 0.13,-1.31 0.76,-2.57 1.86,-3.47zm4.91 3.28l-2.65 2.18c0.25,0.17 0.53,0.27 0.82,0.3 0.46,0.04 0.93,-0.09 1.32,-0.4 0.38,-0.32 0.6,-0.75 0.64,-1.21 0.03,-0.29 -0.01,-0.59 -0.13,-0.87z"/>
   </g>
  </g>
  <polygon class="fil1" points="0,0 16,0 16,16 0,16 "/>
 </g>
</svg>
