<?xml version="1.0" encoding="UTF-8"?>
<!DOCTYPE svg PUBLIC "-//W3C//DTD SVG 1.1//EN" "http://www.w3.org/Graphics/SVG/1.1/DTD/svg11.dtd">
<!-- Creator: CorelDRAW 2021 (64-Bit) -->
<svg xmlns="http://www.w3.org/2000/svg" xml:space="preserve" width="64px" height="64px" version="1.1" style="shape-rendering:geometricPrecision; text-rendering:geometricPrecision; image-rendering:optimizeQuality; fill-rule:evenodd; clip-rule:evenodd"
viewBox="0 0 64 64"
 xmlns:xlink="http://www.w3.org/1999/xlink"
 xmlns:xodm="http://www.corel.com/coreldraw/odm/2003">
 <defs>
  <style type="text/css">
   <![CDATA[
    .str0 {stroke:black;stroke-width:2.08;stroke-linecap:round;stroke-linejoin:round;stroke-miterlimit:2.61313}
    .fil1 {fill:none}
    .fil0 {fill:#040028}
   ]]>
  </style>
   <clipPath id="id0">
    <path d="M0 0l64 0 0 64 -64 0 0 -64z"/>
   </clipPath>
    <clipPath id="id1">
     <path d="M15.81 12.54c0.94,-0.77 1.94,-1.47 2.95,-2.09l-4.48 -5.46 3.77 -3.1 5.25 6.4c9.74,-3.49 21.03,-0.71 27.97,7.74 6.94,8.45 7.46,20.06 2.15,28.93l5.24 6.4 -3.77 3.09 -4.48 -5.46c-0.8,0.88 -1.68,1.71 -2.63,2.49 -1.09,0.9 -2.24,1.69 -3.42,2.37l4.53 5.53 -3.77 3.1 -5.37 -6.56c-9.61,3.2 -20.61,0.38 -27.43,-7.92 -6.8,-8.29 -7.43,-19.63 -2.43,-28.44l-5.38 -6.55 3.77 -3.1 4.54 5.53c0.9,-1.03 1.89,-2 2.99,-2.9zm2.93 3.58c4.39,-3.61 9.83,-5.09 15.06,-4.58 5.12,0.51 10.04,2.91 13.63,7.11l0 0 0.25 0.3 0.01 0.01 0.04 0.05 0.31 0.38c0.23,0.27 0.26,0.35 0.32,0.66 0.11,0.64 -0.26,1.22 -0.9,1.74l-5.94 4.88c1.1,2 1.53,4.24 1.31,6.43 -0.27,2.82 -1.63,5.54 -3.99,7.48 -2.37,1.95 -5.3,2.75 -8.13,2.47 -2.82,-0.27 -5.54,-1.63 -7.49,-4 -1.94,-2.36 -2.74,-5.3 -2.46,-8.12 0.27,-2.83 1.63,-5.54 4,-7.49 2.36,-1.94 5.29,-2.75 8.12,-2.47 1.45,0.15 2.88,0.58 4.19,1.28l-2.34 1.92c-0.93,0.81 -1.25,0.83 -2.23,0.72 -1.83,-0.18 -3.72,0.33 -5.25,1.59 -1.53,1.25 -2.4,3.01 -2.58,4.83 -0.12,1.14 0.05,2.31 0.48,3.39l17.8 -14.61c-2.69,-2.52 -6.07,-3.98 -9.56,-4.32 -4.16,-0.41 -8.47,0.76 -11.95,3.63 -3.49,2.86 -5.48,6.86 -5.89,11.02 -0.41,4.15 0.77,8.47 3.63,11.95 2.86,3.49 6.86,5.48 11.02,5.89 4.16,0.41 8.47,-0.77 11.96,-3.63 3.48,-2.86 5.48,-6.86 5.88,-11.02 0.17,-1.72 -0.06,-3.44 -0.31,-5.17 -0.1,-0.68 0.03,-2.12 1.07,-3.06l1.88 -1.54c1.4,3.25 1.92,6.76 1.58,10.18 -0.51,5.24 -3.03,10.29 -7.41,13.89 -4.39,3.6 -9.83,5.08 -15.07,4.57 -5.23,-0.51 -10.28,-3.02 -13.88,-7.41 -3.61,-4.4 -5.09,-9.83 -4.57,-15.07 0.51,-5.24 3.02,-10.28 7.41,-13.88zm19.66 13.11l-10.62 8.72c1,0.68 2.15,1.08 3.32,1.19 1.82,0.18 3.71,-0.33 5.24,-1.59 1.53,-1.26 2.41,-3.01 2.59,-4.84 0.11,-1.17 -0.06,-2.37 -0.53,-3.48z"/>
    </clipPath>
    <clipPath id="id2">
     <path d="M0 0l64 0 0 64 -64 0 0 -64z"/>
    </clipPath>
 </defs>
 <g id="Layer_x0020_1">
  <metadata id="CorelCorpID_0Corel-Layer"/>
  <g>
  </g>
  <g style="clip-path:url(#id0)">
   <g>
    <path class="fil0" d="M15.81 12.54c0.94,-0.77 1.94,-1.47 2.95,-2.09l-4.48 -5.46 3.77 -3.1 5.25 6.4c9.74,-3.49 21.03,-0.71 27.97,7.74 6.94,8.45 7.46,20.06 2.15,28.93l5.24 6.4 -3.77 3.09 -4.48 -5.46c-0.8,0.88 -1.68,1.71 -2.63,2.49 -1.09,0.9 -2.24,1.69 -3.42,2.37l4.53 5.53 -3.77 3.1 -5.37 -6.56c-9.61,3.2 -20.61,0.38 -27.43,-7.92 -6.8,-8.29 -7.43,-19.63 -2.43,-28.44l-5.38 -6.55 3.77 -3.1 4.54 5.53c0.9,-1.03 1.89,-2 2.99,-2.9zm2.93 3.58c4.39,-3.61 9.83,-5.09 15.06,-4.58 5.12,0.51 10.04,2.91 13.63,7.11l0 0 0.25 0.3 0.01 0.01 0.04 0.05 0.31 0.38c0.23,0.27 0.26,0.35 0.32,0.66 0.11,0.64 -0.26,1.22 -0.9,1.74l-5.94 4.88c1.1,2 1.53,4.24 1.31,6.43 -0.27,2.82 -1.63,5.54 -3.99,7.48 -2.37,1.95 -5.3,2.75 -8.13,2.47 -2.82,-0.27 -5.54,-1.63 -7.49,-4 -1.94,-2.36 -2.74,-5.3 -2.46,-8.12 0.27,-2.83 1.63,-5.54 4,-7.49 2.36,-1.94 5.29,-2.75 8.12,-2.47 1.45,0.15 2.88,0.58 4.19,1.28l-2.34 1.92c-0.93,0.81 -1.25,0.83 -2.23,0.72 -1.83,-0.18 -3.72,0.33 -5.25,1.59 -1.53,1.25 -2.4,3.01 -2.58,4.83 -0.12,1.14 0.05,2.31 0.48,3.39l17.8 -14.61c-2.69,-2.52 -6.07,-3.98 -9.56,-4.32 -4.16,-0.41 -8.47,0.76 -11.95,3.63 -3.49,2.86 -5.48,6.86 -5.89,11.02 -0.41,4.15 0.77,8.47 3.63,11.95 2.86,3.49 6.86,5.48 11.02,5.89 4.16,0.41 8.47,-0.77 11.96,-3.63 3.48,-2.86 5.48,-6.86 5.88,-11.02 0.17,-1.72 -0.06,-3.44 -0.31,-5.17 -0.1,-0.68 0.03,-2.12 1.07,-3.06l1.88 -1.54c1.4,3.25 1.92,6.76 1.58,10.18 -0.51,5.24 -3.03,10.29 -7.41,13.89 -4.39,3.6 -9.83,5.08 -15.07,4.57 -5.23,-0.51 -10.28,-3.02 -13.88,-7.41 -3.61,-4.4 -5.09,-9.83 -4.57,-15.07 0.51,-5.24 3.02,-10.28 7.41,-13.88zm19.66 13.11l-10.62 8.72c1,0.68 2.15,1.08 3.32,1.19 1.82,0.18 3.71,-0.33 5.24,-1.59 1.53,-1.26 2.41,-3.01 2.59,-4.84 0.11,-1.17 -0.06,-2.37 -0.53,-3.48z"/>
   </g>
   <g style="clip-path:url(#id1)">
    <g id="_1949206864288">
     <rect class="fil1 str0" x="-7.14" y="30.58" width="2.4" height="3.37"/>
    </g>
   </g>
   <g style="clip-path:url(#id2)">
    <path class="fil1" d="M15.81 12.54c0.94,-0.77 1.94,-1.47 2.95,-2.09l-4.48 -5.46 3.77 -3.1 5.25 6.4c9.74,-3.49 21.03,-0.71 27.97,7.74 6.94,8.45 7.46,20.06 2.15,28.93l5.24 6.4 -3.77 3.09 -4.48 -5.46c-0.8,0.88 -1.68,1.71 -2.63,2.49 -1.09,0.9 -2.24,1.69 -3.42,2.37l4.53 5.53 -3.77 3.1 -5.37 -6.56c-9.61,3.2 -20.61,0.38 -27.43,-7.92 -6.8,-8.29 -7.43,-19.63 -2.43,-28.44l-5.38 -6.55 3.77 -3.1 4.54 5.53c0.9,-1.03 1.89,-2 2.99,-2.9zm2.93 3.58c4.39,-3.61 9.83,-5.09 15.06,-4.58 5.12,0.51 10.04,2.91 13.63,7.11l0 0 0.25 0.3 0.01 0.01 0.04 0.05 0.31 0.38c0.23,0.27 0.26,0.35 0.32,0.66 0.11,0.64 -0.26,1.22 -0.9,1.74l-5.94 4.88c1.1,2 1.53,4.24 1.31,6.43 -0.27,2.82 -1.63,5.54 -3.99,7.48 -2.37,1.95 -5.3,2.75 -8.13,2.47 -2.82,-0.27 -5.54,-1.63 -7.49,-4 -1.94,-2.36 -2.74,-5.3 -2.46,-8.12 0.27,-2.83 1.63,-5.54 4,-7.49 2.36,-1.94 5.29,-2.75 8.12,-2.47 1.45,0.15 2.88,0.58 4.19,1.28l-2.34 1.92c-0.93,0.81 -1.25,0.83 -2.23,0.72 -1.83,-0.18 -3.72,0.33 -5.25,1.59 -1.53,1.25 -2.4,3.01 -2.58,4.83 -0.12,1.14 0.05,2.31 0.48,3.39l17.8 -14.61c-2.69,-2.52 -6.07,-3.98 -9.56,-4.32 -4.16,-0.41 -8.47,0.76 -11.95,3.63 -3.49,2.86 -5.48,6.86 -5.89,11.02 -0.41,4.15 0.77,8.47 3.63,11.95 2.86,3.49 6.86,5.48 11.02,5.89 4.16,0.41 8.47,-0.77 11.96,-3.63 3.48,-2.86 5.48,-6.86 5.88,-11.02 0.17,-1.72 -0.06,-3.44 -0.31,-5.17 -0.1,-0.68 0.03,-2.12 1.07,-3.06l1.88 -1.54c1.4,3.25 1.92,6.76 1.58,10.18 -0.51,5.24 -3.03,10.29 -7.41,13.89 -4.39,3.6 -9.83,5.08 -15.07,4.57 -5.23,-0.51 -10.28,-3.02 -13.88,-7.41 -3.61,-4.4 -5.09,-9.83 -4.57,-15.07 0.51,-5.24 3.02,-10.28 7.41,-13.88zm19.66 13.11l-10.62 8.72c1,0.68 2.15,1.08 3.32,1.19 1.82,0.18 3.71,-0.33 5.24,-1.59 1.53,-1.26 2.41,-3.01 2.59,-4.84 0.11,-1.17 -0.06,-2.37 -0.53,-3.48z"/>
   </g>
  </g>
  <polygon class="fil1" points="0,0 64,0 64,64 0,64 "/>
 </g>
</svg>
